<svg width="21" height="23" viewBox="0 0 21 23" fill="none" xmlns="http://www.w3.org/2000/svg">
<path d="M5.06894 2.77588C5.06894 2.77588 2.53445 3.17243 2.53445 5.55174C2.53445 7.93105 4.3448 11.1035 5.79307 13.0862C6.60773 14.2045 10.6267 18.7728 14.0953 19.9664C15.0295 20.2876 16.0577 20.2242 16.8905 19.6571C17.4336 19.2883 17.9731 18.6776 18.27 17.6743C18.4401 17.0993 18.2953 16.4648 17.8934 16.0524C16.9919 15.1324 15.2648 13.4828 14.4827 13.4828C13.3965 13.4828 13.0345 15.4655 11.9482 15.4655C11.2241 15.4655 7.91118 14.1054 7.02773 10.4373C6.90463 9.92174 7.08204 9.3745 7.46583 9.04536C8.08135 8.51398 8.92859 7.65743 8.68963 7.13795C8.32756 6.34484 6.87928 2.77588 5.06894 2.77588Z" fill="black"/>
<path d="M10.71 2.1494C11.3545 2.0344 13.4545 1.76078 15.4567 3.13681C17.6328 4.63578 18.8384 7.49888 18.6212 10.5404" stroke="black" stroke-miterlimit="10" stroke-linecap="round"/>
<path d="M11.1336 4.38997C11.5717 4.31462 12.991 4.12428 14.3452 5.06014C15.8188 6.07531 16.6335 8.01445 16.485 10.0726" stroke="black" stroke-miterlimit="10" stroke-linecap="round"/>
<path d="M11.9772 6.36862C12.1619 6.3369 12.7665 6.25759 13.3386 6.65018C13.965 7.07845 14.3089 7.90328 14.2474 8.7757" stroke="black" stroke-miterlimit="10" stroke-linecap="round"/>
</svg>
